<svg xmlns="http://www.w3.org/2000/svg" data-name="Layer 1" viewBox="0 0 64 80" x="0px" y="0px"><title>P B 3</title><path d="M15.61,2.6v36h3.14V5.74H58.58V49.4H56.05a6.34,6.34,0,0,0-6.33,6.33v2.52h-31V55.79a8.48,8.48,0,0,1-3.11.59h0v5H54.16l7.56-7.56V2.6Zm43,49.94-5.72,5.72h0V55.74a3.2,3.2,0,0,1,3.2-3.2h2.52Z"/><rect x="24.7" y="9.3" width="27.93" height="3.36"/><rect x="24.7" y="17.04" width="27.93" height="3.36"/><rect x="24.7" y="24.78" width="27.93" height="3.36"/><rect x="24.7" y="32.52" width="27.93" height="3.36"/><path d="M46.82,43.4h-1V42.24a2,2,0,0,0-2-2H29.45a2,2,0,0,0-2,2v1.85H22.51V42.24a2,2,0,0,0-2-2H6.11a2,2,0,0,0-2,2V43.4h-1a.84.84,0,0,0-.84.84v2.4a.84.84,0,0,0,.84.84h1v.39A6.88,6.88,0,0,0,11,54.75h4.67a6.87,6.87,0,0,0,6.86-6.59,2.63,2.63,0,0,1,4.94,0,6.88,6.88,0,0,0,6.86,6.59H39a6.88,6.88,0,0,0,6.87-6.87v-.39h1a.84.84,0,0,0,.84-.84v-2.4A.84.84,0,0,0,46.82,43.4Zm-26.9,4.47a4.28,4.28,0,0,1-4.28,4.28H11a4.28,4.28,0,0,1-4.28-4.28V42.82H19.92Zm23.33,0A4.28,4.28,0,0,1,39,52.15H34.31A4.28,4.28,0,0,1,30,47.88V42.82H43.25Z"/><text x="0" y="79" fill="#000000" font-size="5px" font-weight="bold" font-family="'Helvetica Neue', Helvetica, Arial-Unicode, Arial, Sans-serif">Created by SHAHAREA</text><text x="0" y="84" fill="#000000" font-size="5px" font-weight="bold" font-family="'Helvetica Neue', Helvetica, Arial-Unicode, Arial, Sans-serif">from the Noun Project</text></svg>