<?xml version="1.0" encoding="UTF-8" standalone="no"?>
<svg
   width="24"
   height="24"
   viewBox="0 0 24 24"
   fill="none"
   stroke="#ffffff"
   stroke-width="2"
   stroke-linecap="round"
   stroke-linejoin="round"
   version="1.1"
   id="svg7"
   sodipodi:docname="logo.svg"
   inkscape:export-filename="logo.svg"
   inkscape:export-xdpi="96"
   inkscape:export-ydpi="96"
   xmlns:inkscape="http://www.inkscape.org/namespaces/inkscape"
   xmlns:sodipodi="http://sodipodi.sourceforge.net/DTD/sodipodi-0.dtd"
   xmlns="http://www.w3.org/2000/svg"
   xmlns:svg="http://www.w3.org/2000/svg">
  <sodipodi:namedview
     id="namedview7"
     pagecolor="#ffffff"
     bordercolor="#000000"
     borderopacity="0.25"
     inkscape:showpageshadow="2"
     inkscape:pageopacity="0.0"
     inkscape:pagecheckerboard="0"
     inkscape:deskcolor="#d1d1d1">
    <inkscape:page
       x="0"
       y="0"
       width="24"
       height="24"
       id="page2"
       margin="0"
       bleed="0" />
  </sodipodi:namedview>
  <defs
     id="defs2">
    <linearGradient
       id="gradient"
       x1="-1"
       y1="12"
       x2="25"
       y2="12"
       gradientUnits="userSpaceOnUse"
       gradientTransform="matrix(0.91780278,0,0,0.91780278,0.98636664,0.98636664)">
      <stop
         offset="0%"
         style="stop-color:#4F46E5; stop-opacity:1"
         id="stop1" />
      <stop
         offset="100%"
         style="stop-color:#9333EA; stop-opacity:1"
         id="stop2" />
    </linearGradient>
  </defs>
  <rect
     width="91.780273%"
     height="91.780273%"
     rx="7.342422"
     fill="url(#gradient)"
     id="rect2"
     style="fill:url(#gradient);stroke-width:1.83561"
     x="0.98636663"
     y="0.98636663" />
  <path
     d="M 8.4336742,10.216837 H 7.5420928 a 1.485969,1.485969 0 0 1 0,-2.9719381 h 0.8915814"
     id="path2"
     style="stroke-width:1.18877" />
  <path
     d="m 15.566326,10.216837 h 0.891582 a 1.485969,1.485969 0 0 0 0,-2.9719381 h -0.891582"
     id="path3"
     style="stroke-width:1.18877" />
  <path
     d="M 7.2448989,17.943876 H 16.755101"
     id="path4"
     style="stroke-width:1.18877" />
  <path
     d="m 10.811225,13.581071 v 1.390867 c 0,0.326913 -0.279363,0.5825 -0.576556,0.71921 -0.7013777,0.320968 -1.2066072,1.206606 -1.2066072,2.252728"
     id="path5"
     style="stroke-width:1.18877" />
  <path
     d="m 13.188775,13.581071 v 1.390867 c 0,0.326913 0.279363,0.5825 0.576556,0.71921 0.701378,0.320968 1.206607,1.206606 1.206607,2.252728"
     id="path6"
     style="stroke-width:1.18877" />
  <path
     d="M 15.566326,6.0561237 H 8.4336742 v 4.1607133 a 3.5663259,3.5663259 0 0 0 7.1326518,0 z"
     id="path7"
     style="stroke-width:1.18877" />
</svg>
