<?xml version="1.0" encoding="UTF-8" standalone="no"?>
<svg
   width="24"
   height="24"
   viewBox="0 0 24 24"
   fill="none"
   stroke="#ffffff"
   stroke-width="2"
   stroke-linecap="round"
   stroke-linejoin="round"
   version="1.1"
   id="svg7"
   sodipodi:docname="logo.svg"
   inkscape:export-filename="logo.svg"
   inkscape:export-xdpi="96"
   inkscape:export-ydpi="96"
   xmlns:inkscape="http://www.inkscape.org/namespaces/inkscape"
   xmlns:sodipodi="http://sodipodi.sourceforge.net/DTD/sodipodi-0.dtd"
   xmlns="http://www.w3.org/2000/svg"
   xmlns:svg="http://www.w3.org/2000/svg">
  <sodipodi:namedview
     id="namedview7"
     pagecolor="#ffffff"
     bordercolor="#000000"
     borderopacity="0.25"
     inkscape:showpageshadow="2"
     inkscape:pageopacity="0.0"
     inkscape:pagecheckerboard="0"
     inkscape:deskcolor="#d1d1d1">
    <inkscape:page
       x="0"
       y="0"
       width="24"
       height="24"
       id="page2"
       margin="0"
       bleed="0" />
  </sodipodi:namedview>
  <defs
     id="defs2">
    <linearGradient
       id="gradient"
       x1="-1"
       y1="12"
       x2="25"
       y2="12"
       gradientUnits="userSpaceOnUse"
       gradientTransform="matrix(0.67121115,0,0,0.67121115,3.945466,3.945466)">
      <stop
         offset="0%"
         style="stop-color:#4F46E5; stop-opacity:1"
         id="stop1" />
      <stop
         offset="100%"
         style="stop-color:#9333EA; stop-opacity:1"
         id="stop2" />
    </linearGradient>
  </defs>
  <rect
     width="67.121109%"
     height="67.121109%"
     rx="5.369689"
     fill="url(#gradient)"
     id="rect2"
     style="fill:url(#gradient);stroke-width:1.34243"
     x="3.945466"
     y="3.945466" />
  <path
     d="M 9.3918604,10.69593 H 8.7398255 a 1.0867248,1.0867248 0 0 1 0,-2.1734495 h 0.6520349"
     id="path2"
     style="stroke-width:0.869376" />
  <path
     d="m 14.608139,10.69593 h 0.652036 a 1.0867248,1.0867248 0 0 0 0,-2.1734495 h -0.652036"
     id="path3"
     style="stroke-width:0.869376" />
  <path
     d="M 8.5224805,16.346899 H 15.477519"
     id="path4"
     style="stroke-width:0.869376" />
  <path
     d="m 11.13062,13.156275 v 1.017174 c 0,0.23908 -0.204305,0.425996 -0.421649,0.525976 -0.512934,0.234731 -0.8824207,0.88242 -0.8824207,1.647474"
     id="path5"
     style="stroke-width:0.869376" />
  <path
     d="m 12.869379,13.156275 v 1.017174 c 0,0.23908 0.204305,0.425996 0.42165,0.525976 0.512934,0.234731 0.88242,0.88242 0.88242,1.647474"
     id="path6"
     style="stroke-width:0.869376" />
  <path
     d="M 14.608139,7.6531008 H 9.3918604 V 10.69593 a 2.6081395,2.6081395 0 0 0 5.2162786,0 z"
     id="path7"
     style="stroke-width:0.869376" />
</svg>
