<?xml version="1.0" encoding="UTF-8" standalone="no"?>
<svg
   width="24"
   height="24"
   viewBox="0 0 24 24"
   fill="none"
   stroke="#ffffff"
   stroke-width="2"
   stroke-linecap="round"
   stroke-linejoin="round"
   version="1.1"
   id="svg7"
   sodipodi:docname="logo.svg"
   inkscape:export-filename="logo.png"
   inkscape:export-xdpi="96"
   inkscape:export-ydpi="96"
   xmlns:inkscape="http://www.inkscape.org/namespaces/inkscape"
   xmlns:sodipodi="http://sodipodi.sourceforge.net/DTD/sodipodi-0.dtd"
   xmlns="http://www.w3.org/2000/svg"
   xmlns:svg="http://www.w3.org/2000/svg">
  <sodipodi:namedview
     id="namedview7"
     pagecolor="#ffffff"
     bordercolor="#000000"
     borderopacity="0.25"
     inkscape:showpageshadow="2"
     inkscape:pageopacity="0.0"
     inkscape:pagecheckerboard="0"
     inkscape:deskcolor="#d1d1d1">
    <inkscape:page
       x="0"
       y="0"
       width="24"
       height="24"
       id="page2"
       margin="0"
       bleed="0" />
  </sodipodi:namedview>
  <defs
     id="defs2">
    <linearGradient
       id="gradient"
       x1="-1"
       y1="12"
       x2="25"
       y2="12"
       gradientUnits="userSpaceOnUse">
      <stop
         offset="0%"
         style="stop-color:#4F46E5; stop-opacity:1"
         id="stop1" />
      <stop
         offset="100%"
         style="stop-color:#9333EA; stop-opacity:1"
         id="stop2" />
    </linearGradient>
  </defs>
  <rect
     width="100%"
     height="100%"
     rx="8"
     fill="url(#gradient)"
     id="rect2"
     x="0"
     y="0"
     style="fill:url(#gradient)" />
  <path
     d="M 8.1142787,10.057139 H 7.1428484 a 1.6190505,1.6190505 0 0 1 0,-3.2381007 h 0.9714303"
     id="path2"
     style="stroke-width:1.29524" />
  <path
     d="m 15.885721,10.057139 h 0.971431 a 1.6190505,1.6190505 0 0 0 0,-3.2381007 h -0.971431"
     id="path3"
     style="stroke-width:1.29524" />
  <path
     d="M 6.8190383,18.476202 H 17.180962"
     id="path4"
     style="stroke-width:1.29524" />
  <path
     d="m 10.70476,13.72267 v 1.515431 c 0,0.356191 -0.304382,0.634668 -0.628192,0.783621 -0.7641919,0.349714 -1.3146691,1.314669 -1.3146691,2.45448"
     id="path5"
     style="stroke-width:1.29524" />
  <path
     d="m 13.29524,13.72267 v 1.515431 c 0,0.356191 0.304382,0.634668 0.628192,0.783621 0.764192,0.349714 1.314669,1.314669 1.314669,2.45448"
     id="path6"
     style="stroke-width:1.29524" />
  <path
     d="M 15.885721,5.5237979 H 8.1142787 v 4.5333411 a 3.8857213,3.8857213 0 0 0 7.7714423,0 z"
     id="path7"
     style="stroke-width:1.29524" />
</svg>
